<?xml version="1.0" encoding="UTF-8" standalone="no"?>
<svg width="600" height="400" viewBox="0 0 600 400" fill="none" xmlns="http://www.w3.org/2000/svg">
  <rect width="600" height="400" rx="8" fill="#F5F5F5"/>
  <rect x="50" y="50" width="500" height="70" rx="4" fill="#E5E5E5"/>
  <rect x="50" y="140" width="500" height="70" rx="4" fill="#E5E5E5"/>
  <rect x="50" y="230" width="500" height="70" rx="4" fill="#E5E5E5"/>
  <rect x="60" y="60" width="50" height="50" rx="4" fill="#D4D4D4"/>
  <rect x="120" y="65" width="200" height="15" rx="2" fill="#D4D4D4"/>
  <rect x="120" y="90" width="300" height="10" rx="2" fill="#D4D4D4"/>
  <rect x="60" y="150" width="50" height="50" rx="4" fill="#D4D4D4"/>
  <rect x="120" y="155" width="200" height="15" rx="2" fill="#D4D4D4"/>
  <rect x="120" y="180" width="300" height="10" rx="2" fill="#D4D4D4"/>
  <rect x="60" y="240" width="50" height="50" rx="4" fill="#D4D4D4"/>
  <rect x="120" y="245" width="200" height="15" rx="2" fill="#D4D4D4"/>
  <rect x="120" y="270" width="300" height="10" rx="2" fill="#D4D4D4"/>
</svg>