<?xml version="1.0" encoding="UTF-8" standalone="no"?>
<svg width="800" height="500" viewBox="0 0 800 500" fill="none" xmlns="http://www.w3.org/2000/svg">
  <rect width="800" height="500" rx="8" fill="#F5F5F5"/>
  <rect x="20" y="20" width="760" height="30" rx="4" fill="#E5E5E5"/>
  <circle cx="35" cy="35" r="5" fill="#FF5F57"/>
  <circle cx="50" cy="35" r="5" fill="#FEBC2E"/>
  <circle cx="65" cy="35" r="5" fill="#28C840"/>
  <rect x="20" y="60" width="250" height="420" rx="4" fill="#E5E5E5"/>
  <rect x="280" y="60" width="500" height="420" rx="4" fill="#E5E5E5"/>
  <rect x="40" y="80" width="210" height="25" rx="4" fill="#D4D4D4"/>
  <rect x="40" y="115" width="210" height="25" rx="4" fill="#D4D4D4"/>
  <rect x="40" y="150" width="210" height="25" rx="4" fill="#D4D4D4"/>
  <rect x="40" y="185" width="210" height="25" rx="4" fill="#D4D4D4"/>
  <rect x="40" y="220" width="210" height="25" rx="4" fill="#D4D4D4"/>
  <rect x="300" y="80" width="460" height="200" rx="4" fill="#D4D4D4"/>
  <rect x="300" y="300" width="220" height="160" rx="4" fill="#D4D4D4"/>
  <rect x="540" y="300" width="220" height="160" rx="4" fill="#D4D4D4"/>
</svg>