<?xml version="1.0" encoding="UTF-8"?>
<svg version="1.1" xmlns="http://www.w3.org/2000/svg" width="1532" height="498">
<path d="M0 0 C6.54368732 1.87121612 10.79938658 2.16786922 17.29296875 -0.1640625 C57.10865822 -13.54109517 100.23357148 -8.27237934 137.51708984 9.77563477 C165.91829961 23.9619173 189.14389916 46.58132521 204.85546875 74.0859375 C205.22559082 74.72515137 205.59571289 75.36436523 205.97705078 76.02294922 C224.93789237 109.06716874 230.80545998 151.93734374 221.85546875 189.0859375 C221.66742676 189.9020752 221.47938477 190.71821289 221.28564453 191.55908203 C216.69918497 210.93751222 208.42392799 228.88618631 196.85546875 245.0859375 C196.27539062 245.90505615 196.27539062 245.90505615 195.68359375 246.74072266 C180.84775751 267.42298624 162.15948349 283.13629124 139.85546875 295.0859375 C139.23978027 295.42367188 138.6240918 295.76140625 137.98974609 296.109375 C104.90372026 314.16709826 62.2995154 318.97467263 25.85546875 309.0859375 C24.27618567 308.60328892 22.70052242 308.10861999 21.12890625 307.6015625 C19.99594116 307.23937622 19.99594116 307.23937622 18.84008789 306.86987305 C17.46314648 306.4125434 16.09555453 305.92509354 14.74389648 305.39770508 C9.56409274 303.59170949 5.92438291 304.56589976 0.76635742 306.18041992 C-4.04545403 307.67727547 -8.9707856 308.65445168 -13.89453125 309.7109375 C-14.88324219 309.9275 -15.87195313 310.1440625 -16.890625 310.3671875 C-58.42774683 319.35118448 -101.55232122 310.58429996 -137.15722656 287.79785156 C-145.05198182 282.53873622 -152.30532036 276.66371067 -159.14453125 270.0859375 C-159.64307617 269.61849121 -160.14162109 269.15104492 -160.65527344 268.66943359 C-188.4804172 242.52733044 -207.642314 204.83950597 -209.30566406 166.3581543 C-209.82897793 118.71529469 -198.49084481 76.56897372 -164.47851562 41.46679688 C-163.33743609 40.28562084 -162.21550701 39.08599538 -161.09765625 37.8828125 C-142.4698883 18.29977439 -115.30795641 3.32594669 -89.14453125 -2.9140625 C-88.35546387 -3.10726074 -87.56639648 -3.30045898 -86.75341797 -3.49951172 C-58.08527124 -10.22332557 -28.04669469 -8.38240742 0 0 Z " fill="#010100" transform="translate(299.14453125,97.9140625)"/>
<path d="M0 0 C15.96176953 0 29.40815028 5.04448534 44 11 C45.66652242 11.66702717 47.33309543 12.3339284 49 13 C49 13.66 49 14.32 49 15 C49.83402344 15.22945312 50.66804688 15.45890625 51.52734375 15.6953125 C55.66635318 17.25035091 58.95134995 19.35800469 62.5625 21.875 C63.26068848 22.3596875 63.95887695 22.844375 64.67822266 23.34375 C71.69116695 28.3222224 77.93400482 33.91968375 84 40 C85.32451172 41.30710937 85.32451172 41.30710937 86.67578125 42.640625 C93.74507844 49.98477822 98.96361935 58.19730159 104 67 C104.639375 68.10988281 105.27875 69.21976562 105.9375 70.36328125 C120.85663604 98.17015311 123.87757494 131.43300027 117 162 C116.7834375 163.051875 116.566875 164.10375 116.34375 165.1875 C111.09892595 188.66433147 98.32370012 208.67448435 82 226 C81.38898438 226.67546875 80.77796875 227.3509375 80.1484375 228.046875 C61.60341128 247.77562629 35.6185196 257.5953701 10 264 C6.7 264 3.4 264 0 264 C0 176.88 0 89.76 0 0 Z " fill="#0098FE" transform="translate(377,119)"/>
<path d="M0 0 C0 87.78 0 175.56 0 266 C-27.46885933 262.56639258 -51.88955605 253.1514623 -73 235 C-73.98871094 234.16339844 -74.97742188 233.32679688 -75.99609375 232.46484375 C-87.04146604 222.79822806 -95.19374183 211.31014872 -103 199 C-103.5053125 198.20980469 -104.010625 197.41960937 -104.53125 196.60546875 C-120.67585533 169.54255661 -124.45799438 132.75079371 -117.20703125 102.5 C-115.47962997 95.86813946 -113.42865444 89.41070149 -111 83 C-110.70609375 82.20980469 -110.4121875 81.41960937 -110.109375 80.60546875 C-102.30581943 61.48675762 -88.09100751 42.78355736 -72 30 C-71.49259277 29.59668457 -70.98518555 29.19336914 -70.46240234 28.77783203 C-53.74164783 15.63838182 -36.09053916 7.48215673 -15.5 2.1875 C-14.65074951 1.96803711 -13.80149902 1.74857422 -12.92651367 1.52246094 C-12.11545166 1.32297852 -11.30438965 1.12349609 -10.46875 0.91796875 C-9.39270508 0.65149536 -9.39270508 0.65149536 -8.29492188 0.37963867 C-6 0 -6 0 0 0 Z " fill="#65CA00" transform="translate(351,118)"/>
<path d="M0 0 C-2.56292091 2.65486426 -5.16536859 4.92914444 -8.125 7.125 C-39.29870453 31.97159709 -61.14036619 69.03528864 -66.53515625 108.765625 C-69.41844762 135.99610456 -67.73751635 167.26456502 -55 192 C-54.27793165 193.70100694 -53.55593816 195.40204592 -52.83496094 197.10351562 C-45.83699494 212.9983109 -36.38730778 226.83558306 -24.45703125 239.38671875 C-22.51285692 241.45452897 -20.70966093 243.53854284 -18.9375 245.75 C-14.33704437 251.20387348 -8.36747918 255.55514953 -2.375 259.375 C-1.59125 259.91125 -0.8075 260.4475 0 261 C0 261.66 0 262.32 0 263 C-17.95917538 264.97909929 -37.50445722 266.12516488 -55 261 C-55.62551758 260.82839355 -56.25103516 260.65678711 -56.89550781 260.47998047 C-92.1517661 250.78667506 -121.09742152 228.69657124 -139.375 196.8125 C-140.6028416 194.55215523 -141.81233365 192.28171035 -143 190 C-143.53109375 189.01386719 -144.0621875 188.02773438 -144.609375 187.01171875 C-148.02402508 180.22642182 -150.2594183 173.29764862 -152.3125 166 C-152.56725098 165.11054688 -152.82200195 164.22109375 -153.08447266 163.3046875 C-154.97690367 156.22516371 -155.63978405 149.30554556 -156 142 C-156.06098877 140.948125 -156.12197754 139.89625 -156.18481445 138.8125 C-157.36315948 115.18043743 -153.56615629 93.266317 -143 72 C-142.67290039 71.32509521 -142.34580078 70.65019043 -142.00878906 69.95483398 C-127.30454888 40.05414293 -99.37458943 15.68964175 -67.93359375 4.76879883 C-59.25318453 1.87861712 -50.85287068 -0.24363828 -41.75 -1.125 C-40.89027588 -1.2084668 -40.03055176 -1.29193359 -39.14477539 -1.37792969 C-26.16955433 -2.5329589 -12.72274928 -3.26822917 0 0 Z " fill="#FDCA00" transform="translate(273,120)"/>
<path d="M0 0 C5.74426093 4.86450926 9.54145734 10.17395904 12.9765625 16.828125 C13.36585938 17.5190625 13.75515625 18.21 14.15625 18.921875 C16.76476011 23.72001039 18.03289677 28.46413032 18.9765625 33.828125 C15.62526991 35.26133976 12.46956306 36.24186891 8.88671875 36.8984375 C7.93732422 37.07246094 6.98792969 37.24648437 6.00976562 37.42578125 C5.02943359 37.59980469 4.04910156 37.77382812 3.0390625 37.953125 C2.06259766 38.13488281 1.08613281 38.31664062 0.08007812 38.50390625 C-4.6745835 39.36135709 -9.16936994 40.07452437 -14.0234375 39.828125 C-14.26126953 38.97541016 -14.26126953 38.97541016 -14.50390625 38.10546875 C-17.28515294 28.90123245 -20.90339185 23.77193731 -29.4140625 19.05078125 C-39.22180568 14.45523692 -50.78834984 14.6730611 -61.0234375 17.828125 C-71.15090894 21.84065482 -77.5441369 26.69450371 -82.1484375 36.59375 C-88.81387806 53.61442858 -89.00296144 73.26395975 -82.21484375 90.296875 C-77.80400952 99.66809001 -72.20400446 106.45531125 -62.3984375 110.140625 C-48.75006179 114.77481561 -34.6147445 113.34816623 -21.625 107.2265625 C-19.74983492 106.18808525 -17.89220977 105.11662046 -16.0625 104 C-14.0234375 102.828125 -14.0234375 102.828125 -12.0234375 102.828125 C-12.0234375 96.888125 -12.0234375 90.948125 -12.0234375 84.828125 C-23.2434375 84.828125 -34.4634375 84.828125 -46.0234375 84.828125 C-46.0234375 75.918125 -46.0234375 67.008125 -46.0234375 57.828125 C-23.9134375 57.828125 -1.8034375 57.828125 20.9765625 57.828125 C21.2446875 67.7075 21.5128125 77.586875 21.7890625 87.765625 C21.90741455 90.86831787 22.0257666 93.97101074 22.14770508 97.16772461 C22.61379788 117.82132781 22.61379788 117.82132781 18.35668945 122.60864258 C15.234839 125.15524094 11.76475722 126.49598022 7.9765625 127.828125 C6.32155775 128.71111228 4.67548113 129.61124575 3.04296875 130.53515625 C1.54884276 131.25212966 0.04747171 131.95421039 -1.4609375 132.640625 C-2.26370117 133.01316406 -3.06646484 133.38570312 -3.89355469 133.76953125 C-25.55948161 143.56359929 -51.52388572 145.49902429 -74.140625 137.76171875 C-92.25703215 130.77791294 -105.30376146 118.86787259 -113.8359375 101.515625 C-123.30926991 79.15987169 -123.74345228 53.01716052 -115.4375 30.3046875 C-113.4524648 25.42435234 -111.04517829 21.13429124 -108.0234375 16.828125 C-107.48847656 16.05984375 -106.95351563 15.2915625 -106.40234375 14.5 C-95.60477163 -0.16275383 -79.93619928 -9.2662836 -62.13769531 -12.73413086 C-40.12201394 -15.82868375 -18.26807698 -13.12280465 0 0 Z " fill="#000000" transform="translate(749.0234375,186.171875)"/>
<path d="M0 0 C1.00524216 -0.00744736 1.00524216 -0.00744736 2.03079224 -0.01504517 C4.26313289 -0.02972397 6.49540206 -0.03648451 8.7277832 -0.04199219 C10.28465272 -0.04774685 11.84152223 -0.05350454 13.39839172 -0.05926514 C16.67624237 -0.06979666 19.95406839 -0.07562262 23.23193359 -0.07910156 C27.39519747 -0.08453663 31.55812598 -0.10844645 35.72128582 -0.13707352 C38.9464658 -0.1558908 42.1715689 -0.16091591 45.39679909 -0.16243744 C46.92871715 -0.16543081 48.46063496 -0.17334451 49.9924984 -0.18662262 C69.6113026 -0.34428392 86.56939956 3.55798758 101.21606445 17.28613281 C113.28195896 29.8363477 117.13987451 45.21359128 119.30053711 61.91601562 C119.54835538 63.83108855 119.82281286 65.74268303 120.1027832 67.65332031 C122.5083903 88.81231604 117.50472077 112.97340912 105.00512695 130.36816406 C95.1694173 142.44346019 80.67110843 148.72029413 65.59106445 151.16113281 C59.83817332 151.53664698 54.11504379 151.51363274 48.3527832 151.45410156 C46.73468931 151.448491 45.11659024 151.44422783 43.49848938 151.4412384 C39.28497702 151.42990431 35.07178582 151.40053897 30.85839844 151.36712646 C26.54081565 151.33617568 22.22317985 151.32268019 17.90551758 151.30761719 C9.46722083 151.27565553 1.02918284 151.22460184 -7.40893555 151.16113281 C-7.43226312 131.62083486 -7.44991403 112.08053972 -7.46074772 92.54023075 C-7.46591098 83.46797788 -7.47295424 74.39573365 -7.484375 65.32348633 C-7.49432093 57.41904569 -7.50078876 49.5146113 -7.50302404 41.61016458 C-7.5043313 37.42218562 -7.50741813 33.23422454 -7.5146656 29.0462513 C-7.52142439 25.10897983 -7.5235528 21.17173373 -7.52204323 17.23445702 C-7.52231962 15.78518664 -7.52432559 14.33591547 -7.52814102 12.88665009 C-7.53307598 10.91642868 -7.53133364 8.94619383 -7.52919006 6.97596741 C-7.53011186 5.87073762 -7.53103365 4.76550783 -7.53198338 3.62678623 C-7.28973788 -1.22737043 -4.19915935 0.02356218 0 0 Z M25.59106445 27.16113281 C25.59106445 59.17113281 25.59106445 91.18113281 25.59106445 124.16113281 C52.23281667 126.34066161 52.23281667 126.34066161 77.27075195 116.57910156 C86.5531663 105.61107466 86.78779551 90.27134818 86.84106445 76.66113281 C86.86168945 75.37464844 86.88231445 74.08816406 86.90356445 72.76269531 C86.9558392 59.77242125 85.80060737 46.2225692 76.8059082 36.16503906 C63.41088298 23.35587976 42.38412655 27.16113281 25.59106445 27.16113281 Z " fill="#000000" transform="translate(1103.408935546875,174.8388671875)"/>
<path d="M0 0 C2.46464819 2.15889758 4.75467915 4.3956442 7.01953125 6.76171875 C7.63957031 7.35082031 8.25960938 7.93992188 8.8984375 8.546875 C23.34829648 23.25534443 27.28378934 45.65786577 27.19580078 65.4074707 C26.93860033 85.97361463 20.84106256 106.29744368 6.421875 121.484375 C-10.57697188 137.59872904 -30.44566734 141.55080846 -53.0390625 141.03515625 C-72.49473477 140.29845265 -89.34587504 132.08740099 -102.66796875 117.94921875 C-117.93276576 100.34417411 -121.04805828 78.35725112 -119.98046875 55.76171875 C-119.54014713 50.71303111 -118.85122423 45.75331065 -117.98046875 40.76171875 C-117.80902344 39.7459375 -117.63757813 38.73015625 -117.4609375 37.68359375 C-114.02597204 21.10711527 -103.60881014 6.24914808 -89.60546875 -3.17578125 C-62.1210643 -19.09614233 -26.0054993 -19.52968689 0 0 Z M-76.45703125 25.84375 C-87.18575802 39.3509419 -88.45502947 57.15758428 -86.98046875 73.76171875 C-85.43184137 85.83033214 -81.20717858 96.71055186 -71.66796875 104.69921875 C-62.36289487 111.33206628 -52.25522084 113.57658257 -40.98046875 112.76171875 C-31.16906754 111.07101596 -23.65670798 107.17976234 -16.98046875 99.76171875 C-16.29984375 99.03984375 -15.61921875 98.31796875 -14.91796875 97.57421875 C-4.91529766 83.05421232 -4.74678431 61.80269954 -7.66796875 45.046875 C-10.32751425 34.131657 -15.4597495 25.04898618 -24.98046875 18.76171875 C-41.78092779 10.89919951 -63.27491333 11.33104271 -76.45703125 25.84375 Z " fill="#000000" transform="translate(1047.98046875,187.23828125)"/>
<path d="M0 0 C36.96 0 73.92 0 112 0 C112 8.91 112 17.82 112 27 C85.6 27 59.2 27 32 27 C32 37.56 32 48.12 32 59 C56.75 59 81.5 59 107 59 C107 67.58 107 76.16 107 85 C82.25 85 57.5 85 32 85 C32 97.87 32 110.74 32 124 C59.39 124 86.78 124 115 124 C115 132.91 115 141.82 115 151 C77.05 151 39.1 151 0 151 C0 101.17 0 51.34 0 0 Z " fill="#000000" transform="translate(796,175)"/>
<path d="M0 0 C0.68429077 -0.00095673 1.36858154 -0.00191345 2.0736084 -0.00289917 C3.52286877 -0.0035808 4.97213218 -0.00172773 6.42138672 0.00244141 C8.64687928 0.00778998 10.87217001 0.0024959 13.09765625 -0.00390625 C14.50260461 -0.00324547 15.90755285 -0.0019643 17.3125 0 C18.59962891 0.00112793 19.88675781 0.00225586 21.21289062 0.00341797 C24.15625 0.1328125 24.15625 0.1328125 25.15625 1.1328125 C25.24995624 2.91273174 25.27369271 4.69637989 25.26977539 6.47875977 C25.26965454 7.63589478 25.26953369 8.79302979 25.26940918 9.98522949 C25.26429321 11.21084595 25.25917725 12.4364624 25.25390625 13.69921875 C25.25289917 14.81872925 25.25189209 15.93823975 25.25085449 17.0916748 C25.2456035 21.29289772 25.23164239 25.49410609 25.21875 29.6953125 C25.1878125 43.771875 25.1878125 43.771875 25.15625 58.1328125 C43.96625 58.4628125 62.77625 58.7928125 82.15625 59.1328125 C82.15625 39.6628125 82.15625 20.1928125 82.15625 0.1328125 C92.38625 0.1328125 102.61625 0.1328125 113.15625 0.1328125 C114.23998237 3.38400962 114.26460082 5.6925553 114.23854065 9.11222839 C114.23150116 10.36164719 114.22446167 11.61106598 114.21720886 12.89834595 C114.2042264 14.28534024 114.19114633 15.67233362 114.17797852 17.05932617 C114.16783571 18.51787523 114.15814204 19.97642748 114.14886475 21.4349823 C114.12238394 25.39753197 114.08960438 29.36000769 114.05571485 33.32249999 C114.02137165 37.46247643 113.99279219 41.6024925 113.96360779 45.74250793 C113.90745454 53.58353776 113.84609922 61.42451795 113.78288645 69.26549369 C113.71117791 78.19160371 113.64525112 87.11775347 113.57981598 96.04391134 C113.44507203 114.40693182 113.30228455 132.7698781 113.15625 151.1328125 C102.92625 151.1328125 92.69625 151.1328125 82.15625 151.1328125 C82.15625 129.3528125 82.15625 107.5728125 82.15625 85.1328125 C63.34625 85.1328125 44.53625 85.1328125 25.15625 85.1328125 C25.15625 106.9128125 25.15625 128.6928125 25.15625 151.1328125 C14.26625 151.1328125 3.37625 151.1328125 -7.84375 151.1328125 C-7.86629583 131.59251155 -7.88472848 112.05222108 -7.89556217 92.51191044 C-7.90072543 83.43965757 -7.90776869 74.36741334 -7.91918945 65.29516602 C-7.92913538 57.39072538 -7.93560321 49.48629099 -7.93783849 41.58184427 C-7.93914576 37.39386531 -7.94223259 33.20590423 -7.94948006 29.01793098 C-7.95623884 25.08065952 -7.95836725 21.14341342 -7.95685768 17.2061367 C-7.95713407 15.75686633 -7.95914004 14.30759515 -7.96295547 12.85832977 C-7.96789043 10.88810836 -7.96614809 8.91787352 -7.96400452 6.94764709 C-7.96492631 5.84241731 -7.9658481 4.73718752 -7.96679783 3.59846592 C-7.71777275 -1.39154124 -4.26259703 0.00373538 0 0 Z " fill="#000000" transform="translate(1253.84375,174.8671875)"/>
<path d="M0 0 C11.22 0 22.44 0 34 0 C42.25673895 19.52838672 50.3352507 39.09084418 57.78588867 58.94287109 C60.07156154 65.02435284 62.38880468 71.05421316 65.08959961 76.96508789 C66.76541341 80.71083959 68.21116248 84.54728439 69.6875 88.375 C72.85654984 96.5539448 76.07663558 104.7105758 79.33203125 112.85546875 C80.49768454 115.7788322 81.66281766 118.70240245 82.82778931 121.6260376 C83.60712275 123.57831749 84.38850471 125.52978091 85.17196655 127.48040771 C86.28676671 130.25693017 87.39406701 133.03634217 88.5 135.81640625 C88.83816238 136.65310349 89.17632477 137.48980072 89.5247345 138.35185242 C89.83625961 139.13880997 90.14778473 139.92576752 90.46875 140.73657227 C90.87770508 141.75836327 90.87770508 141.75836327 91.29492188 142.80079651 C92 145 92 145 93 151 C81.78 151 70.56 151 59 151 C54.4527826 140.08667825 50.20884918 129.0482291 46 118 C26.86 118 7.72 118 -12 118 C-15.57648624 128.11156116 -15.57648624 128.11156116 -19.15014648 138.22412109 C-19.59869304 139.49059621 -20.04733556 140.75703735 -20.49609375 142.0234375 C-20.72848755 142.68255127 -20.96088135 143.34166504 -21.20031738 144.02075195 C-22.8859282 148.7718564 -22.8859282 148.7718564 -24 151 C-34.89 151 -45.78 151 -57 151 C-58 149 -58 149 -57.18652344 146.38745117 C-56.74856445 145.28377197 -56.31060547 144.18009277 -55.859375 143.04296875 C-55.50236259 142.13267662 -55.50236259 142.13267662 -55.13813782 141.20399475 C-54.34898846 139.19570236 -53.549444 137.19171405 -52.75 135.1875 C-51.91993771 133.08313067 -51.09259606 130.97770573 -50.26551819 128.87216187 C-49.69648635 127.42377121 -49.12659931 125.97571628 -48.55589294 124.52798462 C-46.63957305 119.65951088 -44.76574776 114.77672044 -42.92578125 109.87890625 C-42.56083054 108.90844612 -42.56083054 108.90844612 -42.18850708 107.91838074 C-41.0356995 104.84978611 -39.88729692 101.77960373 -38.74316406 98.70776367 C-36.83729302 93.63801487 -34.88235197 88.64887145 -32.578125 83.74609375 C-29.47551069 77.05749777 -27.0465661 70.14111092 -24.55157471 63.20953369 C-16.88139871 41.93166253 -8.50189224 20.95661229 0 0 Z M16 39 C14.23982061 43.87048543 12.47999089 48.74109703 10.72045898 53.61181641 C10.12419651 55.26224016 9.52784516 56.91263181 8.93139648 58.56298828 C7.49632138 62.53388575 6.06245221 66.50520873 4.63134766 70.47753906 C3.5791167 73.398147 2.52130401 76.31662409 1.45849609 79.23339844 C0.99700202 80.50713672 0.53557217 81.78089827 0.07421875 83.0546875 C-0.32837158 84.16054199 -0.73096191 85.26639648 -1.14575195 86.40576172 C-2.10425546 88.86139909 -2.10425546 88.86139909 -2 91 C10.54 91 23.08 91 36 91 C34.05713951 84.52379838 32.07257254 78.18384834 29.75 71.8515625 C29.45061523 71.03174896 29.15123047 70.21193542 28.84277344 69.36727905 C28.21578017 67.65426432 27.58718558 65.94183489 26.95703125 64.22998047 C25.99554494 61.6128736 25.04453298 58.99210507 24.09375 56.37109375 C23.47980268 54.69768319 22.86524118 53.0244978 22.25 51.3515625 C21.96866211 50.57237457 21.68732422 49.79318665 21.39746094 48.99038696 C20.00093552 45.22916243 18.68616132 42.06137437 16 39 Z " fill="#000000" transform="translate(1439,175)"/>
<path d="M0 0 C2.93815692 2.74838115 5.02854994 5.41905729 7.03125 8.90234375 C7.8670459 10.34552979 7.8670459 10.34552979 8.71972656 11.81787109 C9.3072168 12.84734863 9.89470703 13.87682617 10.5 14.9375 C11.11584961 16.00564941 11.73169922 17.07379883 12.36621094 18.17431641 C14.25030263 21.4460489 16.12556276 24.72272913 18 28 C19.07769919 29.87394286 20.15579955 31.74765509 21.234375 33.62109375 C23.69557778 37.90195916 26.13610001 42.19418922 28.56982422 46.49072266 C30.03331625 49.05845416 31.51733364 51.61354229 33.00390625 54.16796875 C33.9405235 55.79923847 34.87673956 57.43073863 35.8125 59.0625 C36.47137207 60.17890869 36.47137207 60.17890869 37.14355469 61.31787109 C40.03200554 66.40292118 40.03200554 66.40292118 39.89086914 69.03588867 C38.63827464 71.79750084 37.03920304 72.53716009 34.4140625 74.015625 C33.01800781 74.80839844 33.01800781 74.80839844 31.59375 75.6171875 C30.6140625 76.15601562 29.634375 76.69484375 28.625 77.25 C27.65304688 77.80429688 26.68109375 78.35859375 25.6796875 78.9296875 C18.42129772 83 18.42129772 83 15 83 C14.46375 82.01386719 13.9275 81.02773437 13.375 80.01171875 C7.77892091 69.79789608 1.92358282 59.75230972 -4.04302979 49.75180054 C-9.25262519 41.01515212 -14.30394904 32.20853625 -19.1796875 23.28125 C-20.94461135 19.99487738 -20.94461135 19.99487738 -23 17 C-23 15.68 -23 14.36 -23 13 C-22.3387915 12.64172119 -21.67758301 12.28344238 -20.99633789 11.91430664 C-18.01740507 10.2988498 -15.03993691 8.68071216 -12.0625 7.0625 C-11.02158203 6.49853516 -9.98066406 5.93457031 -8.90820312 5.35351562 C-7.91884766 4.81533203 -6.92949219 4.27714844 -5.91015625 3.72265625 C-4.99371338 3.22515869 -4.07727051 2.72766113 -3.13305664 2.21508789 C-1.08450486 1.17264298 -1.08450486 1.17264298 0 0 Z " fill="#000000" transform="translate(135,26)"/>
<path d="M0 0 C5.63717259 0.89695005 9.81110711 3.47191846 14.6875 6.3125 C15.55439453 6.79912109 16.42128906 7.28574219 17.31445312 7.78710938 C18.55678711 8.50543945 18.55678711 8.50543945 19.82421875 9.23828125 C20.57791748 9.67180908 21.33161621 10.10533691 22.1081543 10.55200195 C24.22771174 12.17428808 25.00904402 13.54961826 26 16 C25.4438501 16.80268311 25.4438501 16.80268311 24.87646484 17.62158203 C21.07578129 23.20033497 17.78052627 28.9129636 14.625 34.875 C9.19444938 44.9933794 3.41719392 54.87388025 -2.47998047 64.72412109 C-6.09318954 70.76118749 -9.63911576 76.81839133 -13 83 C-18.03368608 81.2131946 -22.5519856 78.55306958 -27.1875 75.9375 C-28.805827 75.02965803 -30.42430911 74.12209249 -32.04296875 73.21484375 C-32.75477295 72.81386475 -33.46657715 72.41288574 -34.19995117 71.99975586 C-35.45127419 71.30476498 -36.71974327 70.64012837 -38 70 C-37.42495803 66.45721269 -36.51691996 63.7272729 -34.77734375 60.59375 C-34.32576904 59.77495361 -33.87419434 58.95615723 -33.40893555 58.11254883 C-32.92336182 57.25040771 -32.43778809 56.3882666 -31.9375 55.5 C-31.18496948 54.14781372 -31.18496948 54.14781372 -30.41723633 52.76831055 C-27.19744133 47.02025816 -23.81548571 41.40170805 -20.30859375 35.82421875 C-15.0738345 27.30471468 -10.37036217 18.44995226 -5.51367188 9.71191406 C-3.69907393 6.46085697 -1.85709558 3.2269334 0 0 Z " fill="#000000" transform="translate(152,390)"/>
<path d="M0 0 C0.4021875 0.74830078 0.4021875 0.74830078 0.8125 1.51171875 C4.10075666 7.53658374 7.70147026 13.32001961 11.42578125 19.08203125 C13 22 13 22 13 26 C12.22624023 26.4218457 11.45248047 26.84369141 10.65527344 27.27832031 C-8.18138761 37.53690158 -8.18138761 37.53690158 -26.6875 48.375 C-33.09120079 52.26779512 -39.52896196 56.07829219 -46.0625 59.75 C-46.81942139 60.18103027 -47.57634277 60.61206055 -48.35620117 61.05615234 C-53.644269 64 -53.644269 64 -57 64 C-58.98316344 60.39801864 -60.96083989 56.79305369 -62.9375 53.1875 C-63.50146484 52.16333984 -64.06542969 51.13917969 -64.64648438 50.08398438 C-65.18466797 49.10107422 -65.72285156 48.11816406 -66.27734375 47.10546875 C-66.77484131 46.19949951 -67.27233887 45.29353027 -67.78491211 44.36010742 C-69 42 -69 42 -70 39 C-68.85144531 38.3709375 -67.70289062 37.741875 -66.51953125 37.09375 C-64.95042856 36.22933415 -63.38142349 35.36474107 -61.8125 34.5 C-61.06291016 34.09007812 -60.31332031 33.68015625 -59.54101562 33.2578125 C-54.86001647 30.67249079 -50.28615791 27.95891819 -45.74609375 25.1328125 C-37.91155125 20.27643992 -29.8444184 15.88011305 -21.75390625 11.46875 C-15.89124979 8.24662866 -10.22837566 4.96496619 -4.79589844 1.05322266 C-3 0 -3 0 0 0 Z " fill="#000000" transform="translate(97,323)"/>
<path d="M0 0 C3.62580078 0.57465672 6.31725325 1.52771387 9.484375 3.37109375 C10.32774414 3.85755371 11.17111328 4.34401367 12.04003906 4.84521484 C12.93432617 5.37066895 13.82861328 5.89612305 14.75 6.4375 C15.68811523 6.98100098 16.62623047 7.52450195 17.59277344 8.08447266 C23.82635213 11.70291163 30.02929386 15.37349381 36.22973633 19.04833984 C52.90151522 28.91428675 52.90151522 28.91428675 70 38 C69.42465317 41.6849014 68.43075981 44.37305417 66.53125 47.57421875 C66.04269531 48.40630859 65.55414063 49.23839844 65.05078125 50.09570312 C64.53902344 50.95099609 64.02726562 51.80628906 63.5 52.6875 C62.48930334 54.39957432 61.47887351 56.1118062 60.46875 57.82421875 C60.01951172 58.57791748 59.57027344 59.33161621 59.10742188 60.1081543 C58.36214814 61.38133027 57.65975905 62.68048191 57 64 C53.28734022 63.31934571 50.49590306 61.70594345 47.25 59.8125 C46.66436279 59.47299316 46.07872559 59.13348633 45.4753418 58.78369141 C43.31352389 57.52816262 41.15668569 56.2643246 39 55 C35.99300517 53.24093662 32.98555489 51.48265876 29.97753906 49.7253418 C27.91448016 48.51923848 25.85257261 47.31116292 23.79199219 46.10083008 C18.11558459 42.7761707 12.39777492 39.5529922 6.61352539 36.41992188 C2.65075151 34.26695663 -1.27777778 32.06015197 -5.1875 29.8125 C-5.94869141 29.38775391 -6.70988281 28.96300781 -7.49414062 28.52539062 C-8.21150391 28.11095703 -8.92886719 27.69652344 -9.66796875 27.26953125 C-10.31016357 26.90448486 -10.9523584 26.53943848 -11.61401367 26.16333008 C-12.07138916 25.77943115 -12.52876465 25.39553223 -13 25 C-13 24.01 -13 23.02 -13 22 C-12.34 22 -11.68 22 -11 22 C-10.76539063 21.18273437 -10.53078125 20.36546875 -10.2890625 19.5234375 C-8.73266343 15.26928005 -6.63830042 11.53626604 -4.375 7.625 C-3.95476563 6.88894531 -3.53453125 6.15289062 -3.1015625 5.39453125 C-2.07247236 3.5936235 -1.03689244 1.79642682 0 0 Z " fill="#000000" transform="translate(38,113)"/>
<path d="M0 0 C9.24 0 18.48 0 28 0 C28 26.07 28 52.14 28 79 C18.76 79 9.52 79 0 79 C0 52.93 0 26.86 0 0 Z " fill="#000000" transform="translate(237,419)"/>
<path d="M0 0 C26.07 0 52.14 0 79 0 C79 9.24 79 18.48 79 28 C52.93 28 26.86 28 0 28 C0 18.76 0 9.52 0 0 Z " fill="#000000" transform="translate(0,236)"/>
<path d="M0 0 C9.24 0 18.48 0 28 0 C28 26.07 28 52.14 28 79 C18.76 79 9.52 79 0 79 C0 52.93 0 26.86 0 0 Z " fill="#000000" transform="translate(235,0)"/>
</svg>
